<svg xmlns="http://www.w3.org/2000/svg" xmlns:xlink="http://www.w3.org/1999/xlink" width="31.739" height="28.399" viewBox="0 0 31.739 28.399">
  <defs>
    <radialGradient id="radial-gradient" cx="0.773" cy="0.93" r="0.961" gradientTransform="matrix(-0.52, 0, 0, -0.52, 0.902, 0.984)" gradientUnits="objectBoundingBox">
      <stop offset="0" stop-color="#ffeb38"/>
      <stop offset="1" stop-color="#f90"/>
    </radialGradient>
  </defs>
  <path id="Vector" d="M9.263.621a35.383,35.383,0,0,1,13.2,0,10.02,10.02,0,0,1,8.592,7.727,25.443,25.443,0,0,1,0,11.706,10.03,10.03,0,0,1-8.667,7.738,35.4,35.4,0,0,1-13.053,0c-4.507-.659-8.05-3.88-8.7-7.936a25.444,25.444,0,0,1,0-11.31C1.283,4.512,4.791,1.3,9.263.621Z" fill="url(#radial-gradient)"/>
</svg>
